<svg xmlns="http://www.w3.org/2000/svg" viewBox="0 0 520 500" width="520" height="500" role="img" aria-label="Engineering and deployment radar" font-family="ui-sans-serif,-apple-system,Segoe UI,Helvetica,Arial,sans-serif"><rect width="100%" height="100%" rx="10" fill="#ffffff" stroke="#d0d7de"/><text x="260" y="28" text-anchor="middle" font-size="16" font-weight="700" fill="#1f2328">Engineering &amp; Deployment</text><text x="260" y="48" text-anchor="middle" font-size="10.5" fill="#57606a">cloud · systems · training · shipping</text><g transform="translate(260,270)"><polygon points="0,-190 148.3,-91.3 92.3,164.1 -92.3,164.1 -148.3,-91.3" fill="none" stroke="#d0d7de" opacity=".85"/><polygon points="0,-142.5 111.2,-68.5 69.2,123.1 -69.2,123.1 -111.2,-68.5" fill="none" stroke="#d0d7de"/><polygon points="0,-95 74.2,-45.6 46.2,82 -46.2,82 -74.2,-45.6" fill="none" stroke="#d0d7de"/><polygon points="0,-47.5 37.1,-22.8 23.1,41 -23.1,41 -37.1,-22.8" fill="none" stroke="#d0d7de"/><g stroke="#eaeef2"><line x1="0" y1="0" x2="0" y2="-190"/><line x1="0" y1="0" x2="148.3" y2="-91.3"/><line x1="0" y1="0" x2="92.3" y2="164.1"/><line x1="0" y1="0" x2="-92.3" y2="164.1"/><line x1="0" y1="0" x2="-148.3" y2="-91.3"/></g><polygon points="0,-180.5 135,-83.1 79.5,141.7 -78.3,139.1 -128.8,-79.4" fill="#6366f1" fill-opacity=".16" stroke="#4f46e5" stroke-width="2.5"/><g fill="#818cf8" stroke="#4f46e5"><circle cx="0" cy="-180.5" r="4"/><circle cx="135" cy="-83.1" r="4"/><circle cx="79.5" cy="141.7" r="4"/><circle cx="-78.3" cy="139.1" r="4"/><circle cx="-128.8" cy="-79.4" r="4"/></g><g font-size="11" font-weight="600" fill="#1f2328"><text x="0" y="-208" text-anchor="middle">Cloud / Vertex AI</text><text x="165" y="-86">Inference Optimization</text><text x="101" y="186">RL Training Pipelines</text><text x="-101" y="186" text-anchor="end">Backend / API</text><text x="-165" y="-86" text-anchor="end">Fine-tuning</text></g></g><text x="260" y="460" text-anchor="middle" font-size="10.5" font-weight="600" fill="#57606a">Docker / CI-CD  ·  Coding Agents</text></svg>