<svg xmlns="http://www.w3.org/2000/svg" viewBox="0 0 520 480" width="520" height="480" role="img" aria-label="Libraries and frameworks radar" font-family="ui-sans-serif,-apple-system,Segoe UI,Helvetica,Arial,sans-serif"><rect width="100%" height="100%" rx="10" fill="#0d1117" stroke="#30363d"/><text x="260" y="28" text-anchor="middle" font-size="16" font-weight="700" fill="#e6edf3">Libraries &amp; Frameworks</text><text x="260" y="48" text-anchor="middle" font-size="10.5" fill="#8b949e">research &amp; engineering stack</text><g transform="translate(260,255)"><polygon points="0,-188 113,-150 177,-58 177,58 113,150 0,188 -113,150 -177,58 -177,-58 -113,-150" fill="none" stroke="#30363d" opacity=".85"/><polygon points="0,-141 84.8,-112.5 132.8,-43.5 132.8,43.5 84.8,112.5 0,141 -84.8,112.5 -132.8,43.5 -132.8,-43.5 -84.8,-112.5" fill="none" stroke="#30363d" opacity=".7"/><polygon points="0,-94 56.5,-75 88.5,-29 88.5,29 56.5,75 0,94 -56.5,75 -88.5,29 -88.5,-29 -56.5,-75" fill="none" stroke="#30363d" opacity=".55"/><polygon points="0,-47 28.3,-37.5 44.3,-14.5 44.3,14.5 28.3,37.5 0,47 -28.3,37.5 -44.3,14.5 -44.3,-14.5 -28.3,-37.5" fill="none" stroke="#30363d" opacity=".4"/><g stroke="#21262d"><line x1="0" y1="0" x2="0" y2="-188"/><line x1="0" y1="0" x2="113" y2="-150"/><line x1="0" y1="0" x2="177" y2="-58"/><line x1="0" y1="0" x2="177" y2="58"/><line x1="0" y1="0" x2="113" y2="150"/><line x1="0" y1="0" x2="0" y2="188"/><line x1="0" y1="0" x2="-113" y2="150"/><line x1="0" y1="0" x2="-177" y2="58"/><line x1="0" y1="0" x2="-177" y2="-58"/><line x1="0" y1="0" x2="-113" y2="-150"/></g><polygon points="0,-178.6 100.9,-133.9 161.1,-52.7 147.8,48.5 83.3,110.8 0,169.2 -84.8,112.6 -151.1,49.5 -150.6,-49.5 -98.4,-130.9" fill="#22c55e" fill-opacity=".2" stroke="#4ade80" stroke-width="2.5"/><g fill="#86efac" stroke="#4ade80"><circle cx="0" cy="-178.6" r="3.8"/><circle cx="100.9" cy="-133.9" r="3.8"/><circle cx="161.1" cy="-52.7" r="3.8"/><circle cx="147.8" cy="48.5" r="3.8"/><circle cx="83.3" cy="110.8" r="3.8"/><circle cx="0" cy="169.2" r="3.8"/><circle cx="-84.8" cy="112.6" r="3.8"/><circle cx="-151.1" cy="49.5" r="3.8"/><circle cx="-150.6" cy="-49.5" r="3.8"/><circle cx="-98.4" cy="-130.9" r="3.8"/></g><g font-size="11.5" font-weight="600" fill="#c9d1d9"><text x="0" y="-208" text-anchor="middle">Transformers</text><text x="124" y="-154">PyTorch</text><text x="191" y="-55">vLLM</text><text x="192" y="65">TRL</text><text x="122" y="176">FastAPI</text><text x="0" y="214" text-anchor="middle">Streamlit</text><text x="-122" y="176" text-anchor="end">LangChain</text><text x="-192" y="65" text-anchor="end">TensorFlow</text><text x="-191" y="-55" text-anchor="end">OpenCV</text><text x="-124" y="-154" text-anchor="end">Next.js</text></g></g></svg>