<svg xmlns="http://www.w3.org/2000/svg" viewBox="0 0 520 410" width="520" height="410" role="img" aria-label="Aditya research footprint" font-family="ui-sans-serif,-apple-system,Segoe UI,Helvetica,Arial,sans-serif"><rect width="520" height="410" rx="10" fill="#0d1117" stroke="#30363d"/><text x="260" y="34" text-anchor="middle" font-size="16" font-weight="700" fill="#e6edf3">research footprint</text><text x="260" y="55" text-anchor="middle" font-size="11" fill="#8b949e">5 research works · 4 venues · 2025–2026</text><line x1="34" y1="72" x2="486" y2="72" stroke="#30363d"/><g font-size="12" font-weight="600" fill="#c9d1d9"><text x="34" y="104">LLM robustness &amp; evaluation</text><text x="34" y="166">Inference efficiency</text><text x="34" y="228">Reasoning &amp; RAG</text><text x="34" y="290">RL / PPO · Legal AI</text></g><g fill="#21262d"><rect x="34" y="114" width="452" height="12" rx="6"/><rect x="34" y="176" width="452" height="12" rx="6"/><rect x="34" y="238" width="452" height="12" rx="6"/><rect x="34" y="300" width="452" height="12" rx="6"/></g><g fill="#39d353"><rect x="34" y="114" width="452" height="12" rx="6"/><rect x="34" y="176" width="339" height="12" rx="6"/><rect x="34" y="238" width="339" height="12" rx="6"/><rect x="34" y="300" width="226" height="12" rx="6"/></g><g fill="#8b949e" font-size="10"><text x="486" y="124" text-anchor="end">core</text><text x="373" y="186" text-anchor="end">active</text><text x="373" y="248" text-anchor="end">active</text><text x="260" y="310" text-anchor="end">focused</text></g><line x1="34" y1="337" x2="486" y2="337" stroke="#30363d"/><g text-anchor="middle"><text x="112" y="365" font-size="22" font-weight="700" fill="#e6edf3">EACL</text><text x="112" y="383" font-size="10" fill="#8b949e">2026</text><text x="210" y="365" font-size="22" font-weight="700" fill="#e6edf3">LREC</text><text x="210" y="383" font-size="10" fill="#8b949e">2026</text><text x="308" y="365" font-size="22" font-weight="700" fill="#e6edf3">ACL</text><text x="308" y="383" font-size="10" fill="#8b949e">2025</text><text x="408" y="365" font-size="22" font-weight="700" fill="#e6edf3">AAAI</text><text x="408" y="383" font-size="10" fill="#8b949e">Bridge 2026</text></g></svg>